<svg id="facebook" xmlns="http://www.w3.org/2000/svg" width="9" height="18" viewBox="0 0 9 18">
  <path id="XMLID_835_" d="M76.99,9.587h1.953V17.71a.289.289,0,0,0,.287.29h3.311a.289.289,0,0,0,.287-.29V9.625h2.245a.288.288,0,0,0,.285-.257l.341-2.99a.292.292,0,0,0-.071-.226.286.286,0,0,0-.214-.1H82.83V4.179c0-.565.3-.852.9-.852h1.691a.289.289,0,0,0,.287-.29V.292A.289.289,0,0,0,85.416,0h-2.33c-.016,0-.053,0-.107,0a4.437,4.437,0,0,0-2.92,1.112,3.113,3.113,0,0,0-1.018,2.75V6.054H76.99a.289.289,0,0,0-.287.29V9.3A.289.289,0,0,0,76.99,9.587Z" transform="translate(-76.703)" fill="#00243a"/>
</svg>
