<svg xmlns="http://www.w3.org/2000/svg" width="22" height="22" viewBox="0 0 22 22">
  <g id="nav-writers" transform="translate(-46.591)">
    <path id="Path_9" data-name="Path 9" d="M52.6,300.389a10.752,10.752,0,0,0-5.981,5.033.335.335,0,0,0,.245.462.54.54,0,0,0,.166.026.456.456,0,0,0,.411-.222,9.947,9.947,0,0,1,5.533-4.656.329.329,0,0,0,.215-.471A.5.5,0,0,0,52.6,300.389Z" transform="translate(0 -286.145)" fill="rgba(0,0,0,0.8)"/>
    <path id="Path_10" data-name="Path 10" d="M312.728,305.428a10.752,10.752,0,0,0-5.98-5.033.5.5,0,0,0-.59.172.329.329,0,0,0,.215.471,9.947,9.947,0,0,1,5.532,4.656.456.456,0,0,0,.411.222.543.543,0,0,0,.166-.026A.335.335,0,0,0,312.728,305.428Z" transform="translate(-244.171 -286.152)" fill="rgba(0,0,0,0.8)"/>
    <path id="Path_11" data-name="Path 11" d="M119.283,6.046c0-3.334-3.392-6.046-7.561-6.046s-7.561,2.712-7.561,6.046a5.828,5.828,0,0,0,3.333,5.013.523.523,0,0,0,.248.061.483.483,0,0,0,.368-.156.314.314,0,0,0-.119-.493,5.145,5.145,0,0,1-2.942-4.425c0-2.942,2.994-5.336,6.673-5.336S118.4,3.1,118.4,6.046a5.127,5.127,0,0,1-2.839,4.368.312.312,0,0,0-.108.494.518.518,0,0,0,.618.086A5.808,5.808,0,0,0,119.283,6.046Z" transform="translate(-54.165)" fill="rgba(0,0,0,0.8)"/>
    <path id="Path_12" data-name="Path 12" d="M180.386,184.329h-.915a3.22,3.22,0,0,0,.59-2.17,2.767,2.767,0,0,0-5.4,0,3.22,3.22,0,0,0,.59,2.17h-.915a.407.407,0,0,0-.444.355v4.169a.407.407,0,0,0,.444.355h2.581v3.922a.455.455,0,0,0,.888,0v-3.922h2.58a.407.407,0,0,0,.444-.355v-4.169A.407.407,0,0,0,180.386,184.329Zm-4.836-2.17a1.857,1.857,0,0,1,3.624,0c0,2.17-.921,2.17-1.812,2.17S175.55,184.329,175.55,182.158Zm4.392,6.339h-5.161v-3.459h5.161Z" transform="translate(-119.771 -171.484)" fill="rgba(0,0,0,0.8)"/>
  </g>
</svg>
