<svg id="icon-nav-likes" xmlns="http://www.w3.org/2000/svg" width="22" height="22" viewBox="0 0 22 22">
  <path id="Path_4" data-name="Path 4" d="M20.966,14.137a5.951,5.951,0,0,0-4.535-2.456,4.717,4.717,0,0,0-.536-.032A6.225,6.225,0,0,0,11,14.213a6.226,6.226,0,0,0-4.893-2.564,4.724,4.724,0,0,0-.539.032,5.953,5.953,0,0,0-4.532,2.455,7.793,7.793,0,0,0-.905,5.579c.489,3.362,4.345,7.455,7.443,10.746l.071.075c.863.917,1.608,1.709,2.094,2.3.066.083.657.814,1.3.814s1.23-.742,1.283-.814c.516-.631,1.354-1.527,2.18-2.409,3.063-3.281,6.877-7.364,7.36-10.713A7.78,7.78,0,0,0,20.966,14.137Zm.123,5.434c-.44,3.053-4.146,7.022-7.14,10.226-.82.876-1.668,1.781-2.212,2.448-.135.18-.477.514-.693.514s-.55-.307-.72-.521c-.51-.619-1.264-1.421-2.138-2.349l-.071-.076C5.1,26.614,1.356,22.635.91,19.571a6.873,6.873,0,0,1,.755-4.9A5.232,5.232,0,0,1,5.65,12.566a4.07,4.07,0,0,1,.457-.027A5.467,5.467,0,0,1,10.673,15.2l.327.543.327-.543a5.468,5.468,0,0,1,4.568-2.664,4,4,0,0,1,.455.027,5.233,5.233,0,0,1,3.989,2.11A6.861,6.861,0,0,1,21.088,19.57Z" transform="translate(0 -11.649)" fill="rgba(0,0,0,0.8)"/>
</svg>
