<svg xmlns="http://www.w3.org/2000/svg" width="23" height="23.001" viewBox="0 0 23 23.001">
  <g id="nav-home" transform="translate(-453 -519.347)">
    <path id="Path_18" data-name="Path 18" d="M2458.065,2701.545h-16.219a.5.5,0,0,1-.5-.5v-11.607a.5.5,0,0,1,1,0v11.107h15.219v-11.107a.5.5,0,0,1,1,0v11.607A.5.5,0,0,1,2458.065,2701.545Z" transform="translate(-1985.456 -2159.197)" fill="rgba(0,0,0,0.8)"/>
    <path id="Path_19" data-name="Path 19" d="M2458.615,2682.381a.5.5,0,0,1-.314-.111l-10.686-8.637-10.686,8.637a.5.5,0,0,1-.628-.778l11-8.891a.5.5,0,0,1,.628,0l11,8.891a.5.5,0,0,1-.314.889Z" transform="translate(-1983.116 -2153.144)" fill="rgba(0,0,0,0.8)"/>
  </g>
</svg>
