<svg xmlns="http://www.w3.org/2000/svg" width="22" height="22" viewBox="0 0 22 22">
  <g id="icon-write" transform="translate(-1 -1.779)">
    <g id="Group_24" data-name="Group 24" transform="translate(1 1.779)">
      <g id="Group_23" data-name="Group 23" transform="translate(0)">
        <path id="Path_22" data-name="Path 22" d="M11.2,19.151H21.5a.364.364,0,0,0,0-.728H11.2a.364.364,0,0,0,0,.728Z" transform="translate(-7.35 -12.364)"/>
        <path id="Path_23" data-name="Path 23" d="M18.974,25.889H11.2a.364.364,0,0,0,0,.728h7.777a.364.364,0,0,0,0-.728Z" transform="translate(-7.35 -17.113)"/>
        <path id="Path_24" data-name="Path 24" d="M18.974,33.193H11.2a.364.364,0,0,0,0,.728h7.777a.364.364,0,0,0,0-.728Z" transform="translate(-7.35 -21.759)"/>
        <path id="Path_25" data-name="Path 25" d="M18.98,40.5H11.2a.364.364,0,0,0,0,.728H18.98a.364.364,0,0,0,0-.728Z" transform="translate(-7.35 -26.407)"/>
        <path id="Path_26" data-name="Path 26" d="M27.343,48.691H24.368a.364.364,0,0,0,0,.728h2.975a.364.364,0,0,0,0-.728Z" transform="translate(-15.847 -31.616)"/>
        <path id="Path_27" data-name="Path 27" d="M22.415,5.529l-.791-.44A1.083,1.083,0,0,0,20.772,5a1.12,1.12,0,0,0-.667.553L18.558,8.472v-5.2A1.477,1.477,0,0,0,17.1,1.779H4.028a.387.387,0,0,0-.256.106L1.106,4.6A.4.4,0,0,0,1,4.863V22.285a1.477,1.477,0,0,0,1.456,1.494H17.1a1.477,1.477,0,0,0,1.456-1.494V15.22l4.307-8.133A1.167,1.167,0,0,0,22.415,5.529ZM3.667,3.023v.71A.757.757,0,0,1,2.92,4.5h-.7ZM17.848,22.285a.757.757,0,0,1-.747.766H2.456a.757.757,0,0,1-.747-.766V5.227H2.92A1.477,1.477,0,0,0,4.376,3.733V2.507H17.1a.757.757,0,0,1,.747.766V9.813l-3.5,6.614a.531.531,0,0,0-.043.178l.031,2.658a.366.366,0,0,0,.191.318.348.348,0,0,0,.364-.022l2.1-1.466s.006-.008.009-.011a.355.355,0,0,0,.1-.116h0l.744-1.4v5.725ZM15.02,17.217l1.092.609-1.076.75ZM22.241,6.74,16.65,17.3l-1.511-.844L20.5,6.341l.234-.444a.406.406,0,0,1,.557-.169l.791.44A.428.428,0,0,1,22.241,6.74Z" transform="translate(-1 -1.779)"/>
      </g>
    </g>
  </g>
</svg>
